<?xml version="1.0" encoding="UTF-8" standalone="no"?>
<!DOCTYPE svg PUBLIC "-//W3C//DTD SVG 1.1//EN"
 "http://www.w3.org/Graphics/SVG/1.1/DTD/svg11.dtd">
<!-- Generated by graphviz version 9.0.0 (20230911.1827)
 -->
<!-- Pages: 1 -->
<svg width="840pt" height="864pt"
 viewBox="0.00 0.00 840.34 864.00" xmlns="http://www.w3.org/2000/svg" xmlns:xlink="http://www.w3.org/1999/xlink">
<g id="graph0" class="graph" transform="scale(0.946331 0.946331) rotate(0) translate(4 909)">
<polygon fill="white" stroke="none" points="-4,4 -4,-909 884,-909 884,4 -4,4"/>
<!-- 10855339632 -->
<g id="node1" class="node">
<title>10855339632</title>
<polygon fill="#caff70" stroke="black" points="678,-31.25 608,-31.25 608,0 678,0 678,-31.25"/>
<text text-anchor="middle" x="643" y="-5.75" font-family="monospace" font-size="10.00"> (64, 10)</text>
</g>
<!-- 10849583008 -->
<g id="node2" class="node">
<title>10849583008</title>
<polygon fill="lightgrey" stroke="black" points="696,-86.5 590,-86.5 590,-67.25 696,-67.25 696,-86.5"/>
<text text-anchor="middle" x="643" y="-73" font-family="monospace" font-size="10.00">ToCopyBackward0</text>
</g>
<!-- 10849583008&#45;&gt;10855339632 -->
<g id="edge29" class="edge">
<title>10849583008&#45;&gt;10855339632</title>
<path fill="none" stroke="black" d="M643,-66.88C643,-60.54 643,-51.7 643,-43.2"/>
<polygon fill="black" stroke="black" points="646.5,-43.22 643,-33.22 639.5,-43.22 646.5,-43.22"/>
</g>
<!-- 10848192160 -->
<g id="node3" class="node">
<title>10848192160</title>
<polygon fill="lightgrey" stroke="black" points="708,-141.75 578,-141.75 578,-122.5 708,-122.5 708,-141.75"/>
<text text-anchor="middle" x="643" y="-128.25" font-family="monospace" font-size="10.00">LogSoftmaxBackward0</text>
</g>
<!-- 10848192160&#45;&gt;10849583008 -->
<g id="edge1" class="edge">
<title>10848192160&#45;&gt;10849583008</title>
<path fill="none" stroke="black" d="M643,-122.33C643,-115.82 643,-106.67 643,-98.37"/>
<polygon fill="black" stroke="black" points="646.5,-98.37 643,-88.37 639.5,-98.37 646.5,-98.37"/>
</g>
<!-- 10849581904 -->
<g id="node4" class="node">
<title>10849581904</title>
<polygon fill="lightgrey" stroke="black" points="696,-197 590,-197 590,-177.75 696,-177.75 696,-197"/>
<text text-anchor="middle" x="643" y="-183.5" font-family="monospace" font-size="10.00">LinearBackward0</text>
</g>
<!-- 10849581904&#45;&gt;10848192160 -->
<g id="edge2" class="edge">
<title>10849581904&#45;&gt;10848192160</title>
<path fill="none" stroke="black" d="M643,-177.58C643,-171.07 643,-161.92 643,-153.62"/>
<polygon fill="black" stroke="black" points="646.5,-153.62 643,-143.62 639.5,-153.62 646.5,-153.62"/>
</g>
<!-- 10849614960 -->
<g id="node5" class="node">
<title>10849614960</title>
<polygon fill="lightgrey" stroke="black" points="558,-252.25 464,-252.25 464,-233 558,-233 558,-252.25"/>
<text text-anchor="middle" x="511" y="-238.75" font-family="monospace" font-size="10.00">ReluBackward0</text>
</g>
<!-- 10849614960&#45;&gt;10849581904 -->
<g id="edge3" class="edge">
<title>10849614960&#45;&gt;10849581904</title>
<path fill="none" stroke="black" d="M533.39,-232.59C554.44,-224.1 586.2,-211.29 610.12,-201.64"/>
<polygon fill="black" stroke="black" points="611.13,-205.01 619.09,-198.02 608.51,-198.51 611.13,-205.01"/>
</g>
<!-- 10849614720 -->
<g id="node6" class="node">
<title>10849614720</title>
<polygon fill="lightgrey" stroke="black" points="548,-313.12 442,-313.12 442,-293.88 548,-293.88 548,-313.12"/>
<text text-anchor="middle" x="495" y="-299.62" font-family="monospace" font-size="10.00">LinearBackward0</text>
</g>
<!-- 10849614720&#45;&gt;10849614960 -->
<g id="edge4" class="edge">
<title>10849614720&#45;&gt;10849614960</title>
<path fill="none" stroke="black" d="M497.43,-293.56C499.59,-285.6 502.83,-273.69 505.6,-263.49"/>
<polygon fill="black" stroke="black" points="508.91,-264.68 508.15,-254.11 502.15,-262.84 508.91,-264.68"/>
</g>
<!-- 10849624720 -->
<g id="node7" class="node">
<title>10849624720</title>
<polygon fill="lightgrey" stroke="black" points="414,-374 320,-374 320,-354.75 414,-354.75 414,-374"/>
<text text-anchor="middle" x="367" y="-360.5" font-family="monospace" font-size="10.00">ViewBackward0</text>
</g>
<!-- 10849624720&#45;&gt;10849614720 -->
<g id="edge5" class="edge">
<title>10849624720&#45;&gt;10849614720</title>
<path fill="none" stroke="black" d="M386.72,-354.3C407.64,-344.68 440.94,-329.37 465.09,-318.26"/>
<polygon fill="black" stroke="black" points="466.47,-321.47 474.09,-314.12 463.55,-315.12 466.47,-321.47"/>
</g>
<!-- 10849620064 -->
<g id="node8" class="node">
<title>10849620064</title>
<polygon fill="lightgrey" stroke="black" points="400,-434.88 306,-434.88 306,-415.62 400,-415.62 400,-434.88"/>
<text text-anchor="middle" x="353" y="-421.38" font-family="monospace" font-size="10.00">ReluBackward0</text>
</g>
<!-- 10849620064&#45;&gt;10849624720 -->
<g id="edge6" class="edge">
<title>10849620064&#45;&gt;10849624720</title>
<path fill="none" stroke="black" d="M355.13,-415.31C357,-407.44 359.79,-395.7 362.2,-385.57"/>
<polygon fill="black" stroke="black" points="365.6,-386.41 364.5,-375.87 358.79,-384.79 365.6,-386.41"/>
</g>
<!-- 10849621408 -->
<g id="node9" class="node">
<title>10849621408</title>
<polygon fill="lightgrey" stroke="black" points="415,-495.75 291,-495.75 291,-476.5 415,-476.5 415,-495.75"/>
<text text-anchor="middle" x="353" y="-482.25" font-family="monospace" font-size="10.00">MaxPool2DBackward0</text>
</g>
<!-- 10849621408&#45;&gt;10849620064 -->
<g id="edge7" class="edge">
<title>10849621408&#45;&gt;10849620064</title>
<path fill="none" stroke="black" d="M353,-476.18C353,-468.4 353,-456.83 353,-446.78"/>
<polygon fill="black" stroke="black" points="356.5,-446.79 353,-436.79 349.5,-446.79 356.5,-446.79"/>
</g>
<!-- 10849622992 -->
<g id="node10" class="node">
<title>10849622992</title>
<polygon fill="lightgrey" stroke="black" points="397,-551 309,-551 309,-531.75 397,-531.75 397,-551"/>
<text text-anchor="middle" x="353" y="-537.5" font-family="monospace" font-size="10.00">MulBackward0</text>
</g>
<!-- 10849622992&#45;&gt;10849621408 -->
<g id="edge8" class="edge">
<title>10849622992&#45;&gt;10849621408</title>
<path fill="none" stroke="black" d="M353,-531.58C353,-525.07 353,-515.92 353,-507.62"/>
<polygon fill="black" stroke="black" points="356.5,-507.62 353,-497.62 349.5,-507.62 356.5,-507.62"/>
</g>
<!-- 10849625968 -->
<g id="node11" class="node">
<title>10849625968</title>
<polygon fill="lightgrey" stroke="black" points="421,-606.25 285,-606.25 285,-587 421,-587 421,-606.25"/>
<text text-anchor="middle" x="353" y="-592.75" font-family="monospace" font-size="10.00">ConvolutionBackward0</text>
</g>
<!-- 10849625968&#45;&gt;10849622992 -->
<g id="edge9" class="edge">
<title>10849625968&#45;&gt;10849622992</title>
<path fill="none" stroke="black" d="M353,-586.83C353,-580.32 353,-571.17 353,-562.87"/>
<polygon fill="black" stroke="black" points="356.5,-562.87 353,-552.87 349.5,-562.87 356.5,-562.87"/>
</g>
<!-- 10849620352 -->
<g id="node12" class="node">
<title>10849620352</title>
<polygon fill="lightgrey" stroke="black" points="258,-661.5 164,-661.5 164,-642.25 258,-642.25 258,-661.5"/>
<text text-anchor="middle" x="211" y="-648" font-family="monospace" font-size="10.00">ReluBackward0</text>
</g>
<!-- 10849620352&#45;&gt;10849625968 -->
<g id="edge10" class="edge">
<title>10849620352&#45;&gt;10849625968</title>
<path fill="none" stroke="black" d="M235.09,-641.84C257.94,-633.27 292.52,-620.31 318.33,-610.63"/>
<polygon fill="black" stroke="black" points="319.24,-614.02 327.38,-607.23 316.78,-607.47 319.24,-614.02"/>
</g>
<!-- 10849624000 -->
<g id="node13" class="node">
<title>10849624000</title>
<polygon fill="lightgrey" stroke="black" points="246,-722.38 122,-722.38 122,-703.12 246,-703.12 246,-722.38"/>
<text text-anchor="middle" x="184" y="-708.88" font-family="monospace" font-size="10.00">MaxPool2DBackward0</text>
</g>
<!-- 10849624000&#45;&gt;10849620352 -->
<g id="edge11" class="edge">
<title>10849624000&#45;&gt;10849620352</title>
<path fill="none" stroke="black" d="M188.1,-702.81C191.83,-694.68 197.45,-682.42 202.19,-672.08"/>
<polygon fill="black" stroke="black" points="205.24,-673.83 206.23,-663.28 198.88,-670.91 205.24,-673.83"/>
</g>
<!-- 10849622224 -->
<g id="node14" class="node">
<title>10849622224</title>
<polygon fill="lightgrey" stroke="black" points="252,-783.25 116,-783.25 116,-764 252,-764 252,-783.25"/>
<text text-anchor="middle" x="184" y="-769.75" font-family="monospace" font-size="10.00">ConvolutionBackward0</text>
</g>
<!-- 10849622224&#45;&gt;10849624000 -->
<g id="edge12" class="edge">
<title>10849622224&#45;&gt;10849624000</title>
<path fill="none" stroke="black" d="M184,-763.68C184,-755.9 184,-744.33 184,-734.28"/>
<polygon fill="black" stroke="black" points="187.5,-734.29 184,-724.29 180.5,-734.29 187.5,-734.29"/>
</g>
<!-- 10849621264 -->
<g id="node15" class="node">
<title>10849621264</title>
<polygon fill="lightgrey" stroke="black" points="175,-838.5 75,-838.5 75,-819.25 175,-819.25 175,-838.5"/>
<text text-anchor="middle" x="125" y="-825" font-family="monospace" font-size="10.00">AccumulateGrad</text>
</g>
<!-- 10849621264&#45;&gt;10849622224 -->
<g id="edge13" class="edge">
<title>10849621264&#45;&gt;10849622224</title>
<path fill="none" stroke="black" d="M135.01,-818.84C143.37,-811.3 155.5,-800.35 165.6,-791.23"/>
<polygon fill="black" stroke="black" points="167.94,-793.84 173.02,-784.54 163.25,-788.64 167.94,-793.84"/>
</g>
<!-- 6143624304 -->
<g id="node16" class="node">
<title>6143624304</title>
<polygon fill="lightblue" stroke="black" points="178,-905 0,-905 0,-874.5 178,-874.5 178,-905"/>
<text text-anchor="middle" x="89" y="-891.5" font-family="monospace" font-size="10.00">feature_maps_stack.0.weight</text>
<text text-anchor="middle" x="89" y="-880.25" font-family="monospace" font-size="10.00"> (10, 1, 5, 5)</text>
</g>
<!-- 6143624304&#45;&gt;10849621264 -->
<g id="edge14" class="edge">
<title>6143624304&#45;&gt;10849621264</title>
<path fill="none" stroke="black" d="M97.9,-874.2C102.64,-866.44 108.53,-856.81 113.6,-848.51"/>
<polygon fill="black" stroke="black" points="116.43,-850.6 118.66,-840.24 110.46,-846.95 116.43,-850.6"/>
</g>
<!-- 10849622656 -->
<g id="node17" class="node">
<title>10849622656</title>
<polygon fill="lightgrey" stroke="black" points="311,-838.5 211,-838.5 211,-819.25 311,-819.25 311,-838.5"/>
<text text-anchor="middle" x="261" y="-825" font-family="monospace" font-size="10.00">AccumulateGrad</text>
</g>
<!-- 10849622656&#45;&gt;10849622224 -->
<g id="edge15" class="edge">
<title>10849622656&#45;&gt;10849622224</title>
<path fill="none" stroke="black" d="M247.94,-818.84C236.54,-810.96 219.77,-799.36 206.26,-790.02"/>
<polygon fill="black" stroke="black" points="208.59,-787.37 198.37,-784.56 204.6,-793.13 208.59,-787.37"/>
</g>
<!-- 6143625264 -->
<g id="node18" class="node">
<title>6143625264</title>
<polygon fill="lightblue" stroke="black" points="362,-905 196,-905 196,-874.5 362,-874.5 362,-905"/>
<text text-anchor="middle" x="279" y="-891.5" font-family="monospace" font-size="10.00">feature_maps_stack.0.bias</text>
<text text-anchor="middle" x="279" y="-880.25" font-family="monospace" font-size="10.00"> (10)</text>
</g>
<!-- 6143625264&#45;&gt;10849622656 -->
<g id="edge16" class="edge">
<title>6143625264&#45;&gt;10849622656</title>
<path fill="none" stroke="black" d="M274.55,-874.2C272.31,-866.87 269.56,-857.87 267.12,-849.91"/>
<polygon fill="black" stroke="black" points="270.49,-848.94 264.22,-840.4 263.79,-850.99 270.49,-848.94"/>
</g>
<!-- 10849623808 -->
<g id="node19" class="node">
<title>10849623808</title>
<polygon fill="lightgrey" stroke="black" points="403,-661.5 303,-661.5 303,-642.25 403,-642.25 403,-661.5"/>
<text text-anchor="middle" x="353" y="-648" font-family="monospace" font-size="10.00">AccumulateGrad</text>
</g>
<!-- 10849623808&#45;&gt;10849625968 -->
<g id="edge17" class="edge">
<title>10849623808&#45;&gt;10849625968</title>
<path fill="none" stroke="black" d="M353,-642.08C353,-635.57 353,-626.42 353,-618.12"/>
<polygon fill="black" stroke="black" points="356.5,-618.12 353,-608.12 349.5,-618.12 356.5,-618.12"/>
</g>
<!-- 6090580304 -->
<g id="node20" class="node">
<title>6090580304</title>
<polygon fill="lightblue" stroke="black" points="442,-728 264,-728 264,-697.5 442,-697.5 442,-728"/>
<text text-anchor="middle" x="353" y="-714.5" font-family="monospace" font-size="10.00">feature_maps_stack.3.weight</text>
<text text-anchor="middle" x="353" y="-703.25" font-family="monospace" font-size="10.00"> (20, 10, 5, 5)</text>
</g>
<!-- 6090580304&#45;&gt;10849623808 -->
<g id="edge18" class="edge">
<title>6090580304&#45;&gt;10849623808</title>
<path fill="none" stroke="black" d="M353,-697.2C353,-689.96 353,-681.09 353,-673.19"/>
<polygon fill="black" stroke="black" points="356.5,-673.46 353,-663.46 349.5,-673.46 356.5,-673.46"/>
</g>
<!-- 10849620160 -->
<g id="node21" class="node">
<title>10849620160</title>
<polygon fill="lightgrey" stroke="black" points="557,-661.5 457,-661.5 457,-642.25 557,-642.25 557,-661.5"/>
<text text-anchor="middle" x="507" y="-648" font-family="monospace" font-size="10.00">AccumulateGrad</text>
</g>
<!-- 10849620160&#45;&gt;10849625968 -->
<g id="edge19" class="edge">
<title>10849620160&#45;&gt;10849625968</title>
<path fill="none" stroke="black" d="M480.88,-641.84C455.88,-633.2 417.92,-620.07 389.85,-610.37"/>
<polygon fill="black" stroke="black" points="391.28,-607.16 380.68,-607.2 388.99,-613.77 391.28,-607.16"/>
</g>
<!-- 6143624208 -->
<g id="node22" class="node">
<title>6143624208</title>
<polygon fill="lightblue" stroke="black" points="626,-728 460,-728 460,-697.5 626,-697.5 626,-728"/>
<text text-anchor="middle" x="543" y="-714.5" font-family="monospace" font-size="10.00">feature_maps_stack.3.bias</text>
<text text-anchor="middle" x="543" y="-703.25" font-family="monospace" font-size="10.00"> (20)</text>
</g>
<!-- 6143624208&#45;&gt;10849620160 -->
<g id="edge20" class="edge">
<title>6143624208&#45;&gt;10849620160</title>
<path fill="none" stroke="black" d="M534.1,-697.2C529.36,-689.44 523.47,-679.81 518.4,-671.51"/>
<polygon fill="black" stroke="black" points="521.54,-669.95 513.34,-663.24 515.57,-673.6 521.54,-669.95"/>
</g>
<!-- 10849627264 -->
<g id="node23" class="node">
<title>10849627264</title>
<polygon fill="lightgrey" stroke="black" points="545,-374 445,-374 445,-354.75 545,-354.75 545,-374"/>
<text text-anchor="middle" x="495" y="-360.5" font-family="monospace" font-size="10.00">AccumulateGrad</text>
</g>
<!-- 10849627264&#45;&gt;10849614720 -->
<g id="edge21" class="edge">
<title>10849627264&#45;&gt;10849614720</title>
<path fill="none" stroke="black" d="M495,-354.43C495,-346.65 495,-335.08 495,-325.03"/>
<polygon fill="black" stroke="black" points="498.5,-325.04 495,-315.04 491.5,-325.04 498.5,-325.04"/>
</g>
<!-- 6143625072 -->
<g id="node24" class="node">
<title>6143625072</title>
<polygon fill="lightblue" stroke="black" points="572,-440.5 418,-440.5 418,-410 572,-410 572,-440.5"/>
<text text-anchor="middle" x="495" y="-427" font-family="monospace" font-size="10.00">classify_stack.1.weight</text>
<text text-anchor="middle" x="495" y="-415.75" font-family="monospace" font-size="10.00"> (50, 320)</text>
</g>
<!-- 6143625072&#45;&gt;10849627264 -->
<g id="edge22" class="edge">
<title>6143625072&#45;&gt;10849627264</title>
<path fill="none" stroke="black" d="M495,-409.7C495,-402.46 495,-393.59 495,-385.69"/>
<polygon fill="black" stroke="black" points="498.5,-385.96 495,-375.96 491.5,-385.96 498.5,-385.96"/>
</g>
<!-- 10849622272 -->
<g id="node25" class="node">
<title>10849622272</title>
<polygon fill="lightgrey" stroke="black" points="687,-374 587,-374 587,-354.75 687,-354.75 687,-374"/>
<text text-anchor="middle" x="637" y="-360.5" font-family="monospace" font-size="10.00">AccumulateGrad</text>
</g>
<!-- 10849622272&#45;&gt;10849614720 -->
<g id="edge23" class="edge">
<title>10849622272&#45;&gt;10849614720</title>
<path fill="none" stroke="black" d="M615.12,-354.3C591.6,-344.55 553.97,-328.95 527.1,-317.81"/>
<polygon fill="black" stroke="black" points="528.64,-314.66 518.07,-314.06 525.96,-321.13 528.64,-314.66"/>
</g>
<!-- 6143831856 -->
<g id="node26" class="node">
<title>6143831856</title>
<polygon fill="lightblue" stroke="black" points="732,-440.5 590,-440.5 590,-410 732,-410 732,-440.5"/>
<text text-anchor="middle" x="661" y="-427" font-family="monospace" font-size="10.00">classify_stack.1.bias</text>
<text text-anchor="middle" x="661" y="-415.75" font-family="monospace" font-size="10.00"> (50)</text>
</g>
<!-- 6143831856&#45;&gt;10849622272 -->
<g id="edge24" class="edge">
<title>6143831856&#45;&gt;10849622272</title>
<path fill="none" stroke="black" d="M655.07,-409.7C652.01,-402.2 648.24,-392.95 644.94,-384.85"/>
<polygon fill="black" stroke="black" points="648.29,-383.79 641.27,-375.85 641.81,-386.43 648.29,-383.79"/>
</g>
<!-- 10849607280 -->
<g id="node27" class="node">
<title>10849607280</title>
<polygon fill="lightgrey" stroke="black" points="693,-252.25 593,-252.25 593,-233 693,-233 693,-252.25"/>
<text text-anchor="middle" x="643" y="-238.75" font-family="monospace" font-size="10.00">AccumulateGrad</text>
</g>
<!-- 10849607280&#45;&gt;10849581904 -->
<g id="edge25" class="edge">
<title>10849607280&#45;&gt;10849581904</title>
<path fill="none" stroke="black" d="M643,-232.83C643,-226.32 643,-217.17 643,-208.87"/>
<polygon fill="black" stroke="black" points="646.5,-208.87 643,-198.87 639.5,-208.87 646.5,-208.87"/>
</g>
<!-- 6143830896 -->
<g id="node28" class="node">
<title>6143830896</title>
<polygon fill="lightblue" stroke="black" points="720,-318.75 566,-318.75 566,-288.25 720,-288.25 720,-318.75"/>
<text text-anchor="middle" x="643" y="-305.25" font-family="monospace" font-size="10.00">classify_stack.3.weight</text>
<text text-anchor="middle" x="643" y="-294" font-family="monospace" font-size="10.00"> (10, 50)</text>
</g>
<!-- 6143830896&#45;&gt;10849607280 -->
<g id="edge26" class="edge">
<title>6143830896&#45;&gt;10849607280</title>
<path fill="none" stroke="black" d="M643,-287.95C643,-280.71 643,-271.84 643,-263.94"/>
<polygon fill="black" stroke="black" points="646.5,-264.21 643,-254.21 639.5,-264.21 646.5,-264.21"/>
</g>
<!-- 10849615728 -->
<g id="node29" class="node">
<title>10849615728</title>
<polygon fill="lightgrey" stroke="black" points="835,-252.25 735,-252.25 735,-233 835,-233 835,-252.25"/>
<text text-anchor="middle" x="785" y="-238.75" font-family="monospace" font-size="10.00">AccumulateGrad</text>
</g>
<!-- 10849615728&#45;&gt;10849581904 -->
<g id="edge27" class="edge">
<title>10849615728&#45;&gt;10849581904</title>
<path fill="none" stroke="black" d="M760.91,-232.59C738.06,-224.02 703.48,-211.06 677.67,-201.38"/>
<polygon fill="black" stroke="black" points="679.22,-198.22 668.62,-197.98 676.76,-204.77 679.22,-198.22"/>
</g>
<!-- 6143833968 -->
<g id="node30" class="node">
<title>6143833968</title>
<polygon fill="lightblue" stroke="black" points="880,-318.75 738,-318.75 738,-288.25 880,-288.25 880,-318.75"/>
<text text-anchor="middle" x="809" y="-305.25" font-family="monospace" font-size="10.00">classify_stack.3.bias</text>
<text text-anchor="middle" x="809" y="-294" font-family="monospace" font-size="10.00"> (10)</text>
</g>
<!-- 6143833968&#45;&gt;10849615728 -->
<g id="edge28" class="edge">
<title>6143833968&#45;&gt;10849615728</title>
<path fill="none" stroke="black" d="M803.07,-287.95C800.01,-280.45 796.24,-271.2 792.94,-263.1"/>
<polygon fill="black" stroke="black" points="796.29,-262.04 789.27,-254.1 789.81,-264.68 796.29,-262.04"/>
</g>
</g>
</svg>
