<?xml version="1.0" encoding="UTF-8" standalone="no"?>
<!DOCTYPE svg PUBLIC "-//W3C//DTD SVG 1.1//EN"
 "http://www.w3.org/Graphics/SVG/1.1/DTD/svg11.dtd">
<!-- Generated by graphviz version 9.0.0 (20230911.1827)
 -->
<!-- Pages: 1 -->
<svg width="322pt" height="327pt"
 viewBox="0.00 0.00 322.00 326.75" xmlns="http://www.w3.org/2000/svg" xmlns:xlink="http://www.w3.org/1999/xlink">
<g id="graph0" class="graph" transform="scale(1 1) rotate(0) translate(4 322.75)">
<polygon fill="white" stroke="none" points="-4,4 -4,-322.75 318,-322.75 318,4 -4,4"/>
<!-- 5908802608 -->
<g id="node1" class="node">
<title>5908802608</title>
<polygon fill="#caff70" stroke="black" points="189,-31.25 131,-31.25 131,0 189,0 189,-31.25"/>
<text text-anchor="middle" x="160" y="-5.75" font-family="monospace" font-size="10.00"> (5, 3)</text>
</g>
<!-- 5908929392 -->
<g id="node2" class="node">
<title>5908929392</title>
<polygon fill="lightgrey" stroke="black" points="213,-86.5 107,-86.5 107,-67.25 213,-67.25 213,-86.5"/>
<text text-anchor="middle" x="160" y="-73" font-family="monospace" font-size="10.00">ToCopyBackward0</text>
</g>
<!-- 5908929392&#45;&gt;5908802608 -->
<g id="edge7" class="edge">
<title>5908929392&#45;&gt;5908802608</title>
<path fill="none" stroke="black" d="M160,-66.88C160,-60.54 160,-51.7 160,-43.2"/>
<polygon fill="black" stroke="black" points="163.5,-43.22 160,-33.22 156.5,-43.22 163.5,-43.22"/>
</g>
<!-- 5908929536 -->
<g id="node3" class="node">
<title>5908929536</title>
<polygon fill="lightgrey" stroke="black" points="225,-141.75 95,-141.75 95,-122.5 225,-122.5 225,-141.75"/>
<text text-anchor="middle" x="160" y="-128.25" font-family="monospace" font-size="10.00">LogSoftmaxBackward0</text>
</g>
<!-- 5908929536&#45;&gt;5908929392 -->
<g id="edge1" class="edge">
<title>5908929536&#45;&gt;5908929392</title>
<path fill="none" stroke="black" d="M160,-122.33C160,-115.82 160,-106.67 160,-98.37"/>
<polygon fill="black" stroke="black" points="163.5,-98.37 160,-88.37 156.5,-98.37 163.5,-98.37"/>
</g>
<!-- 5908929680 -->
<g id="node4" class="node">
<title>5908929680</title>
<polygon fill="lightgrey" stroke="black" points="213,-197 107,-197 107,-177.75 213,-177.75 213,-197"/>
<text text-anchor="middle" x="160" y="-183.5" font-family="monospace" font-size="10.00">LinearBackward0</text>
</g>
<!-- 5908929680&#45;&gt;5908929536 -->
<g id="edge2" class="edge">
<title>5908929680&#45;&gt;5908929536</title>
<path fill="none" stroke="black" d="M160,-177.58C160,-171.07 160,-161.92 160,-153.62"/>
<polygon fill="black" stroke="black" points="163.5,-153.62 160,-143.62 156.5,-153.62 163.5,-153.62"/>
</g>
<!-- 5908929728 -->
<g id="node5" class="node">
<title>5908929728</title>
<polygon fill="lightgrey" stroke="black" points="139,-252.25 39,-252.25 39,-233 139,-233 139,-252.25"/>
<text text-anchor="middle" x="89" y="-238.75" font-family="monospace" font-size="10.00">AccumulateGrad</text>
</g>
<!-- 5908929728&#45;&gt;5908929680 -->
<g id="edge3" class="edge">
<title>5908929728&#45;&gt;5908929680</title>
<path fill="none" stroke="black" d="M101.04,-232.59C111.41,-224.82 126.6,-213.42 138.97,-204.15"/>
<polygon fill="black" stroke="black" points="141.02,-206.98 146.92,-198.18 136.82,-201.38 141.02,-206.98"/>
</g>
<!-- 4429134256 -->
<g id="node6" class="node">
<title>4429134256</title>
<polygon fill="lightblue" stroke="black" points="154,-318.75 0,-318.75 0,-288.25 154,-288.25 154,-318.75"/>
<text text-anchor="middle" x="77" y="-305.25" font-family="monospace" font-size="10.00">classify_stack.3.weight</text>
<text text-anchor="middle" x="77" y="-294" font-family="monospace" font-size="10.00"> (3, 50)</text>
</g>
<!-- 4429134256&#45;&gt;5908929728 -->
<g id="edge4" class="edge">
<title>4429134256&#45;&gt;5908929728</title>
<path fill="none" stroke="black" d="M79.97,-287.95C81.44,-280.71 83.25,-271.84 84.86,-263.94"/>
<polygon fill="black" stroke="black" points="88.28,-264.68 86.85,-254.18 81.42,-263.28 88.28,-264.68"/>
</g>
<!-- 5908929440 -->
<g id="node7" class="node">
<title>5908929440</title>
<polygon fill="lightgrey" stroke="black" points="281,-252.25 181,-252.25 181,-233 281,-233 281,-252.25"/>
<text text-anchor="middle" x="231" y="-238.75" font-family="monospace" font-size="10.00">AccumulateGrad</text>
</g>
<!-- 5908929440&#45;&gt;5908929680 -->
<g id="edge5" class="edge">
<title>5908929440&#45;&gt;5908929680</title>
<path fill="none" stroke="black" d="M218.96,-232.59C208.59,-224.82 193.4,-213.42 181.03,-204.15"/>
<polygon fill="black" stroke="black" points="183.18,-201.38 173.08,-198.18 178.98,-206.98 183.18,-201.38"/>
</g>
<!-- 5713504848 -->
<g id="node8" class="node">
<title>5713504848</title>
<polygon fill="lightblue" stroke="black" points="314,-318.75 172,-318.75 172,-288.25 314,-288.25 314,-318.75"/>
<text text-anchor="middle" x="243" y="-305.25" font-family="monospace" font-size="10.00">classify_stack.3.bias</text>
<text text-anchor="middle" x="243" y="-294" font-family="monospace" font-size="10.00"> (3)</text>
</g>
<!-- 5713504848&#45;&gt;5908929440 -->
<g id="edge6" class="edge">
<title>5713504848&#45;&gt;5908929440</title>
<path fill="none" stroke="black" d="M240.03,-287.95C238.56,-280.71 236.75,-271.84 235.14,-263.94"/>
<polygon fill="black" stroke="black" points="238.58,-263.28 233.15,-254.18 231.72,-264.68 238.58,-263.28"/>
</g>
</g>
</svg>
